<svg width="136" height="40" viewBox="0 0 136 40" fill="none" xmlns="http://www.w3.org/2000/svg">
<path d="M96.402 30.1868L88.5537 30.1862L65.0089 30.1846L33.6158 30.1824L32.7817 34.3346L90.69 34.3346L90.69 39.0276L93.7221 34.3346L96.402 30.1868Z" fill="url(#paint0_linear_32_3)"/>
<path d="M86.5819 27.9329C83.8768 27.9329 81.8352 27.1845 80.4571 25.6878C79.1045 24.191 78.4282 22.1107 78.4282 19.447C78.4282 17.8488 78.6834 16.314 79.1938 14.8426C79.7042 13.3458 80.4188 12.0266 81.3375 10.885C82.2818 9.74342 83.4047 8.84282 84.7062 8.18323C86.0333 7.49827 87.5134 7.15579 89.1467 7.15579C89.9379 7.15579 90.7417 7.25727 91.5584 7.46022C92.375 7.6378 93.1151 7.94223 93.7786 8.3735C94.4422 8.7794 94.9909 9.33752 95.4247 10.0478C95.8585 10.7582 96.0755 11.6207 96.0755 12.6355C96.0755 14.7157 95.0419 16.3393 92.9748 17.5063C90.9331 18.6733 87.6538 19.3075 83.1367 19.409C83.0601 19.9163 83.0219 20.2842 83.0219 20.5125C83.0219 21.6034 83.3281 22.4786 83.9406 23.1382C84.5531 23.7978 85.5484 24.1276 86.9265 24.1276C87.9218 24.1276 88.8277 23.9119 89.6444 23.4807C90.461 23.0494 91.3032 22.301 92.1709 21.2355L95.0419 23.5948C93.7914 25.1931 92.4771 26.322 91.099 26.9816C89.7465 27.6158 88.2408 27.9329 86.5819 27.9329ZM88.8405 10.7328C87.5645 10.7328 86.4799 11.1514 85.5866 11.9886C84.6934 12.8257 84.1065 13.9673 83.8258 15.4134L83.6344 16.3647C85.2677 16.2886 86.5947 16.1617 87.6155 15.9842C88.6618 15.7812 89.4657 15.5402 90.0272 15.2612C90.6141 14.9821 91.0097 14.6523 91.2139 14.2718C91.418 13.8912 91.5201 13.46 91.5201 12.978C91.5201 12.5213 91.4308 12.1535 91.2521 11.8744C91.099 11.57 90.8949 11.3417 90.6397 11.1894C90.3845 11.0119 90.091 10.8977 89.7592 10.847C89.453 10.7709 89.1467 10.7328 88.8405 10.7328Z" fill="white"/>
<path d="M55.6099 27.4763L59.6293 7.61243H64.2612L63.3808 12.0266H63.5722C64.3123 10.4537 65.1927 9.24873 66.2135 8.41155C67.2599 7.57438 68.5486 7.15579 70.0798 7.15579C71.6876 7.15579 72.8998 7.61243 73.7165 8.52571C74.5586 9.43899 74.9797 10.7328 74.9797 12.4072C74.9797 12.8384 74.9414 13.2824 74.8649 13.739C74.8138 14.1703 74.7373 14.6396 74.6352 15.147L72.9126 23.709H75.1328L74.3672 27.4763H71.1517C70.233 27.4763 69.5056 27.2479 68.9697 26.7913C68.4338 26.3093 68.1658 25.637 68.1658 24.7745C68.1658 24.4193 68.2041 24.0642 68.2807 23.709L69.9267 15.5275C70.0798 14.8172 70.1564 14.1196 70.1564 13.4346C70.1564 12.6989 69.9778 12.1281 69.6205 11.7222C69.2632 11.2909 68.6635 11.0753 67.8213 11.0753C67.1578 11.0753 66.5453 11.2402 65.9838 11.57C65.4224 11.8744 64.912 12.293 64.4526 12.8257C63.9422 13.4092 63.4956 14.0561 63.1128 14.7665C62.7555 15.4768 62.5003 16.2252 62.3472 17.0116L60.2418 27.4763H55.6099Z" fill="white"/>
<path fill-rule="evenodd" clip-rule="evenodd" d="M51.4019 6.56869C50.5597 6.56869 49.9472 6.40379 49.5644 6.074C49.1816 5.7442 48.9902 5.31293 48.9902 4.78019C48.9902 4.39965 49.054 3.91764 49.1816 3.33416C49.3347 2.69994 49.6282 2.15451 50.0621 1.69787C50.5214 1.21586 51.2998 0.974854 52.3972 0.974854C53.2393 0.974854 53.8518 1.13975 54.2346 1.46955C54.6174 1.79934 54.8088 2.23061 54.8088 2.76336C54.8088 3.14389 54.745 3.6259 54.6174 4.20939C54.4643 4.84361 54.1581 5.40172 53.6987 5.88373C53.2648 6.34037 52.4992 6.56869 51.4019 6.56869ZM48.8594 27.4766C47.8896 27.4766 47.1113 27.223 46.5243 26.7156C45.9629 26.1828 45.6821 25.4852 45.6821 24.6226C45.6821 24.369 45.7204 24.0518 45.797 23.6713L48.3007 11.1677H52.9343L50.4289 23.7094H52.8406L52.075 27.4766H48.8594Z" fill="white"/>
<path d="M38.3181 27.4761C37.3228 27.4761 36.5317 27.2224 35.9447 26.7151C35.3833 26.1823 35.1025 25.4847 35.1025 24.6221V24.2416C35.1281 24.1148 35.1663 23.9372 35.2174 23.7089L39.7782 1.00455H44.4101L39.8493 23.7089H42.4141L41.6868 27.4761H38.3181Z" fill="white"/>
<path d="M128.348 37.9096H121.193L115.628 24.3416H115.257L104.975 37.9096H97.2373L112.554 18.5116L104.869 0.915588H112.024L117.43 14.0066H117.801L127.977 0.915588H135.715L120.398 19.5716L128.348 37.9096Z" fill="white"/>
<path d="M12.1374 1.02304L7.48909 24.0181C7.34326 24.6705 7.23389 25.2866 7.16098 25.8664C7.08806 26.4463 7.0516 27.008 7.0516 27.5516C7.0516 29.5087 7.56201 30.9946 8.58282 32.0093C9.64008 32.9878 11.1348 33.4771 13.0671 33.4771C15.5827 33.4771 17.5149 32.7341 18.8638 31.2483C20.2492 29.7624 21.27 27.3886 21.9263 24.1268L26.5746 1.02304H33.465L31.1409 12.5206L28.8167 24.0181C28.2699 26.7725 27.5589 29.1281 26.684 31.0852C25.809 33.0422 24.7153 34.6549 23.4028 35.9234C22.1268 37.1918 20.5956 38.1341 18.8091 38.7502C17.0592 39.3301 15.0176 39.62 12.6843 39.62C8.71042 39.62 5.66622 38.6234 3.55168 36.6301C1.43715 34.6006 0.379883 31.6288 0.379883 27.7147C0.379883 26.9899 0.41634 26.2107 0.489255 25.3772C0.56217 24.5436 0.708 23.6376 0.926745 22.6591L5.24696 1.02304H12.1374Z" fill="white"/>
<defs>
<linearGradient id="paint0_linear_32_3" x1="96.402" y1="34.605" x2="32.7817" y2="34.6049" gradientUnits="userSpaceOnUse">
<stop stop-color="#E24998"/>
<stop offset="1" stop-color="#4181FC"/>
</linearGradient>
</defs>
</svg>
